<svg width="60" height="59" viewBox="0 0 60 59" fill="none" xmlns="http://www.w3.org/2000/svg">
<g id="github" clip-path="url(#clip0_180_15310)">
<path id="Vector" fill-rule="evenodd" clip-rule="evenodd" d="M30.0215 0C13.4221 0 0 13.5204 0 30.2489C0 43.6218 8.59777 54.936 20.5265 58.943C22.0199 59.2441 22.5668 58.2915 22.5668 57.4926C22.5668 56.792 22.5177 54.389 22.5177 51.8816C14.1657 53.6823 12.4265 48.2741 12.4265 48.2741C11.0868 44.7711 9.09556 43.8677 9.09556 43.8677C6.36075 42.0178 9.29223 42.0178 9.29223 42.0178C12.322 42.2206 13.9138 45.1214 13.9138 45.1214C16.5994 49.7306 20.9198 48.4277 22.6652 47.6227C22.911 45.6683 23.7099 44.3163 24.5519 43.5665C17.89 42.8659 10.8839 40.2602 10.8839 28.6449C10.8839 25.3385 12.0762 22.6344 13.9629 20.5326C13.6618 19.7829 12.6232 16.6793 14.2641 12.5187C14.2641 12.5187 16.7961 11.7198 22.5177 15.6222C24.9636 14.9585 27.4895 14.6205 30.0215 14.6205C32.5535 14.6205 35.1408 14.9708 37.5254 15.6222C43.2408 11.7136 45.779 12.5187 45.779 12.5187C47.4198 16.6732 46.3751 19.7829 46.0801 20.5326C48.016 22.6344 49.1591 25.3385 49.1591 28.6449C49.1591 40.2663 42.153 42.8168 35.442 43.5665C36.5359 44.5191 37.4823 46.3198 37.4823 49.1775C37.4823 53.2336 37.4332 56.4908 37.4332 57.4926C37.4332 58.2915 37.9801 59.2441 39.4735 58.943C51.4022 54.936 60 43.6218 60 30.2489C60.0492 13.5204 46.5779 0 30.0277 0L30.0215 0Z" fill="#24292F"/>
</g>
<defs>
<clipPath id="clip0_180_15310">
<rect width="60" height="58.9983" fill="white"/>
</clipPath>
</defs>
</svg>
