<svg width="60" height="60" viewBox="0 0 60 60" fill="none" xmlns="http://www.w3.org/2000/svg">
<g id="instagram" clip-path="url(#clip0_180_15304)">
<path id="Vector" d="M40.7684 0H19.2316C8.61026 0 0 8.61026 0 19.2316V40.7684C0 51.3897 8.61026 60 19.2316 60H40.7684C51.3897 60 60 51.3897 60 40.7684V19.2316C60 8.61026 51.3897 0 40.7684 0Z" fill="url(#paint0_linear_180_15304)"/>
<g id="Group">
<path id="Vector_2" d="M39.2994 51.0661H20.7003C14.2127 51.0661 8.94238 45.789 8.94238 39.3082V20.7091C8.94238 14.2215 14.2195 8.95117 20.7003 8.95117H39.2994C45.787 8.95117 51.0573 14.2283 51.0573 20.7091V39.3082C51.0573 45.7958 45.7802 51.0661 39.2994 51.0661ZM20.7003 12.2494C16.042 12.2494 12.2474 16.044 12.2474 20.7023V39.3014C12.2474 43.9597 16.042 47.7543 20.7003 47.7543H39.2994C43.9577 47.7543 47.7523 43.9597 47.7523 39.3014V20.7023C47.7523 16.044 43.9577 12.2494 39.2994 12.2494H20.7003Z" fill="white"/>
<path id="Vector_3" d="M29.996 41.0409C23.9097 41.0409 18.959 36.0902 18.959 30.0039C18.959 23.9175 23.9097 18.9668 29.996 18.9668C36.0824 18.9668 41.0331 23.9175 41.0331 30.0039C41.0331 36.0902 36.0824 41.0409 29.996 41.0409ZM29.996 22.2718C25.7322 22.2718 22.264 25.74 22.264 30.0039C22.264 34.2677 25.7322 37.7359 29.996 37.7359C34.2599 37.7359 37.7281 34.2677 37.7281 30.0039C37.7281 25.74 34.2599 22.2718 29.996 22.2718Z" fill="white"/>
<path id="Vector_4" d="M44.0804 18.643C44.0804 20.1459 42.8631 21.3699 41.3534 21.3699C39.8437 21.3699 38.6265 20.1527 38.6265 18.643C38.6265 17.1333 39.8437 15.916 41.3534 15.916C42.8631 15.916 44.0804 17.1333 44.0804 18.643Z" fill="white"/>
</g>
</g>
<defs>
<linearGradient id="paint0_linear_180_15304" x1="10.3638" y1="56.0286" x2="46.3244" y2="8.3577" gradientUnits="userSpaceOnUse">
<stop stop-color="#FFD14C"/>
<stop offset="0.31" stop-color="#FF3D51"/>
<stop offset="0.58" stop-color="#D92299"/>
<stop offset="0.81" stop-color="#A730C3"/>
<stop offset="1" stop-color="#6053F8"/>
</linearGradient>
<clipPath id="clip0_180_15304">
<rect width="60" height="60" fill="white"/>
</clipPath>
</defs>
</svg>
